<?xml version="1.0" encoding="utf-8"?>
<!-- Generator: Adobe Illustrator 16.0.0, SVG Export Plug-In . SVG Version: 6.00 Build 0)  -->
<!DOCTYPE svg PUBLIC "-//W3C//DTD SVG 1.1//EN" "http://www.w3.org/Graphics/SVG/1.1/DTD/svg11.dtd">
<svg version="1.1" id="Layer_1" xmlns="http://www.w3.org/2000/svg" xmlns:xlink="http://www.w3.org/1999/xlink" x="0px" y="0px"
	 width="60px" height="60px" viewBox="0 0 60 60" style="enable-background:new 0 0 60 60;" xml:space="preserve">
<g>
	<g>
		<g>
			<path d="M43.869,17.324H15.146c-0.605,0-1.097-0.491-1.097-1.098c0-0.606,0.491-1.097,1.097-1.097h28.723
				c0.605,0,1.097,0.491,1.097,1.097C44.966,16.833,44.475,17.324,43.869,17.324z"/>
		</g>
	</g>
	<g>
		<g>
			<path d="M43.869,25.591H15.146c-0.605,0-1.097-0.491-1.097-1.098c0-0.606,0.491-1.097,1.097-1.097h28.723
				c0.605,0,1.097,0.491,1.097,1.097C44.966,25.101,44.475,25.591,43.869,25.591z"/>
		</g>
	</g>
	<g>
		<g>
			<path d="M43.869,33.857H15.146c-0.605,0-1.097-0.49-1.097-1.098c0-0.605,0.491-1.097,1.097-1.097h28.723
				c0.605,0,1.097,0.491,1.097,1.097C44.966,33.367,44.475,33.857,43.869,33.857z"/>
		</g>
	</g>
	<g>
		<g>
			<path d="M43.869,42.124H15.146c-0.605,0-1.097-0.49-1.097-1.098c0-0.605,0.491-1.096,1.097-1.096h28.723
				c0.605,0,1.097,0.49,1.097,1.096C44.966,41.634,44.475,42.124,43.869,42.124z"/>
		</g>
	</g>
	<g>
		<g>
			<path d="M43.869,50.391H15.146c-0.605,0-1.097-0.49-1.097-1.098c0-0.605,0.491-1.098,1.097-1.098h28.723
				c0.605,0,1.097,0.492,1.097,1.098C44.966,49.9,44.475,50.391,43.869,50.391z"/>
		</g>
	</g>
	<path d="M49.683,5.865H38.057V4.491h-2.444l-2.238-3.245c-0.205-0.297-0.543-0.474-0.903-0.474h-5.812
		c-0.352,0-0.682,0.169-0.888,0.454l-2.364,3.265H20.96v1.374H10.019c-0.605,0-1.097,0.491-1.097,1.097v50.585
		c0,0.606,0.492,1.098,1.097,1.098h39.664c0.605,0,1.098-0.491,1.098-1.098V6.961C50.78,6.355,50.288,5.865,49.683,5.865z
		 M27.218,2.967h4.676l1.052,1.524h-6.832L27.218,2.967z M48.586,56.45H11.117V8.059h9.843v3.047h17.097V8.059h10.529V56.45z"/>
</g>
</svg>
